<svg width="100" height="100" viewBox="0 0 100 100" fill="none" xmlns="http://www.w3.org/2000/svg">
<path d="M92 57.293L77.429 42.722L77.444 42.707L72.594 37.858L72.579 37.872L72.565 37.858L67.715 42.707L67.729 42.722L50.004 60.447L32.271 42.722L32.285 42.707L27.435 37.858L27.421 37.872L27.406 37.858L22.556 42.707L22.571 42.722L8 57.293H0V65.292L4.85 70.142L27.421 47.572L50.008 70.142L54.855 65.296L72.579 47.572L95.15 70.142L100 65.292V57.293H92Z" fill="#111111"/>
<path d="M0 57.293L4.85 62.142L27.421 39.572L50.008 62.142L54.855 57.296L72.579 39.572L95.15 62.142L100 57.293L77.429 34.722L77.444 34.707L72.594 29.858L72.579 29.872L72.565 29.858L67.715 34.707L67.729 34.722L50.004 52.447L32.271 34.722L32.285 34.707L27.435 29.858L27.421 29.872L27.406 29.858L22.556 34.707L22.571 34.722L0 57.293Z" fill="#8686FC"/>
</svg>
