<svg width="100" height="100" viewBox="0 0 100 100" fill="none" xmlns="http://www.w3.org/2000/svg">
<g clip-path="url(#clip0_3_2673)">
<path d="M99.83 15.256L83.692 15.297L76.933 15.306L60.776 0.0179946L83.667 -0.0180054L99.83 15.256Z" fill="#8686FC"/>
<path d="M99.83 15.256L100 100H16.203L16.172 84.718L16.153 75.836L77.048 75.713L76.933 15.306L83.692 15.297L99.83 15.256Z" fill="#C5C5FF"/>
<path d="M77.048 75.713L16.153 75.836L0 61.843L60.895 61.72L77.048 75.713Z" fill="#8686FC"/>
<path d="M76.933 15.306L77.048 75.713L60.895 61.72L60.776 0.0180054L76.933 15.306Z" fill="#111111"/>
<path d="M16.153 75.836L16.172 84.718L16.203 100L0.04 84.744L0 61.843L16.153 75.836Z" fill="#111111"/>
</g>
<defs>
<clipPath id="clip0_3_2673">
<rect width="100" height="100" fill="white"/>
</clipPath>
</defs>
</svg>
