<svg width="100" height="100" viewBox="0 0 100 100" fill="none" xmlns="http://www.w3.org/2000/svg">
<path d="M50.194 48.999L50.053 97L10.225 74L10.354 26L50.194 48.999Z" stroke="#111111" stroke-width="6" stroke-linecap="round" stroke-linejoin="round"/>
<path d="M89.775 26L89.646 74L50.053 97L50.194 48.999L89.775 26Z" fill="#8686FC" stroke="#111111" stroke-width="6" stroke-linecap="round" stroke-linejoin="round"/>
<path d="M50.194 52C49.6676 52.0006 49.1503 51.8627 48.694 51.6L8.85404 28.6C8.39841 28.337 8.01996 27.9589 7.75663 27.5034C7.4933 27.048 7.35437 26.5313 7.35376 26.0053C7.35315 25.4792 7.49089 24.9622 7.75317 24.5062C8.01544 24.0501 8.39302 23.6711 8.84804 23.407L48.44 0.406023C48.8969 0.141416 49.4156 0.0020752 49.9435 0.0020752C50.4715 0.0020752 50.9901 0.141416 51.447 0.406023L91.275 23.406C91.7305 23.669 92.1088 24.0471 92.372 24.5023C92.6353 24.9576 92.7742 25.4741 92.7749 26C92.7757 26.5259 92.6381 27.0428 92.3761 27.4988C92.1141 27.9547 91.7368 28.3338 91.282 28.598L51.701 51.598C51.2429 51.8625 50.723 52.0012 50.194 52Z" fill="#111111"/>
</svg>
