<svg width="100" height="100" viewBox="0 0 100 100" fill="none" xmlns="http://www.w3.org/2000/svg">
<path d="M36.929 8.28198L24.015 21.196L21.19 24.009L2 30.647L17.726 14.908L36.929 8.28198Z" fill="#8686FC" stroke="#111111" stroke-width="4" stroke-linecap="round" stroke-linejoin="round"/>
<path d="M82.274 8.28198L69.359 21.196L59.595 30.949L53.319 24.672L63.071 14.908L82.274 8.28198Z" fill="#8686FC" stroke="#111111" stroke-width="4" stroke-linecap="round" stroke-linejoin="round"/>
<path d="M43.872 46.691L24.662 53.309L2 30.647L21.19 24.009L43.872 46.691Z" fill="#111111" stroke="#111111" stroke-width="4" stroke-linecap="round" stroke-linejoin="round"/>
<path d="M43.872 46.691L21.19 69.353L2 75.991L24.652 53.319L24.662 53.309L43.872 46.691Z" fill="#8686FC" stroke="#111111" stroke-width="4" stroke-linecap="round" stroke-linejoin="round"/>
<path d="M36.929 85.092L17.726 91.718L2 75.991L21.19 69.353L36.929 85.092Z" fill="#111111" stroke="#111111" stroke-width="4" stroke-linecap="round" stroke-linejoin="round"/>
<path d="M75.334 46.687L98 69.353L82.274 85.092L75.985 78.804L59.595 62.413L46.681 75.328L36.929 85.092L21.19 69.353L43.869 46.687L21.19 24.009L24.015 21.196L36.929 8.28198L59.595 30.949L69.359 21.196L82.274 8.28198L98 24.009L75.334 46.687Z" fill="#C5C5FF" stroke="#111111" stroke-width="4" stroke-linecap="round" stroke-linejoin="round"/>
<path d="M82.274 85.092L63.071 91.718L46.681 75.328L59.595 62.413L75.985 78.804L82.274 85.092Z" fill="#111111" stroke="#111111" stroke-width="4" stroke-linecap="round" stroke-linejoin="round"/>
</svg>
