<svg width="400" height="333" viewBox="0 0 400 333" fill="none" xmlns="http://www.w3.org/2000/svg">
<path d="M211.475 1C213.694 1 216.525 2.47819 219.868 5.4707C223.169 8.42542 226.801 12.7023 230.61 17.9492C238.224 28.4371 246.448 42.6667 254.033 57.5781C261.616 72.4844 268.546 88.0399 273.577 101.164C276.093 107.727 278.13 113.671 279.536 118.614C280.95 123.584 281.701 127.459 281.701 129.923C281.701 150.113 264.891 162.381 244.65 166.784C236.58 168.54 229.294 170.361 222.643 169.725C216.117 169.1 210.163 166.094 204.837 157.952C197.892 147.336 193.548 132.202 191.301 115.382C189.056 98.5811 188.913 80.1911 190.303 63.1357C191.693 46.0741 194.612 30.3965 198.465 19.0127C200.394 13.3146 202.539 8.74845 204.805 5.62695C207.094 2.47375 209.351 1.00008 211.475 1ZM283.701 129.923C283.701 127.162 282.879 123.059 281.459 118.067C280.031 113.049 277.973 107.045 275.444 100.448C270.386 87.2529 263.427 71.634 255.815 56.6719C248.207 41.7149 239.93 27.3818 232.229 16.7744C228.382 11.4738 224.653 7.06969 221.202 3.98047C220.119 3.01084 219.044 2.15555 217.987 1.43848C240.671 4.44876 262.998 22.7306 280.209 46.5166C299.041 72.5419 311.5 104.821 311.5 129.923C311.5 155.217 307.287 177.968 296.869 194.364C286.497 210.689 269.915 220.815 244.863 220.815C194.665 220.815 153.971 180.121 153.971 129.923C153.971 104.573 155.91 72.2182 164.145 46.2324C171.76 22.1997 184.617 3.98647 205.975 1.33398C204.998 2.18379 204.067 3.2383 203.186 4.45215C200.751 7.80541 198.529 12.5852 196.57 18.3721C192.648 29.9588 189.708 45.809 188.31 62.9736C186.911 80.1444 187.051 98.6799 189.318 115.646C191.583 132.594 195.981 148.07 203.163 159.048C208.801 167.666 215.284 171.03 222.452 171.716C229.493 172.389 237.157 170.461 245.075 168.738C265.674 164.257 283.701 151.528 283.701 129.923ZM313.5 129.923C313.5 104.274 300.822 71.5922 281.829 45.3438C267.032 24.8947 248.25 8.14913 228.424 1.77246C260.549 4.7777 286.307 16.4861 304.747 35.4326C326.328 57.6072 338 89.813 338 129.923C338 170.217 334.607 206.488 321.267 232.668C314.609 245.732 305.484 256.264 293.071 263.537C280.654 270.813 264.879 274.869 244.863 274.869C164.812 274.869 99.917 209.974 99.917 129.923C99.917 89.7261 107.89 57.5139 125.748 35.3633C141.233 16.1563 164.258 4.38836 196.32 1.62988C179.387 7.93936 168.786 24.9655 162.238 45.6279C153.908 71.9159 151.971 104.522 151.971 129.923C151.971 181.226 193.561 222.815 244.863 222.815C270.561 222.815 287.798 212.37 298.557 195.437C309.27 178.575 313.5 155.379 313.5 129.923ZM340 129.923C340 89.4294 328.211 56.674 306.181 34.0381C290.085 17.5001 268.584 6.42845 242.374 1.66113C284.218 3.59172 319.945 10.091 346.659 25.498C363.171 35.0209 376.238 47.9476 385.187 65.3242C394.14 82.7106 399 104.608 399 132.106C399 242.011 309.905 331.106 200 331.106C90.0953 331.106 1 242.011 1 132.106C1.00003 104.649 7.27616 82.7794 18.3535 65.4033C29.4321 48.0255 45.356 35.0756 64.7578 25.5293C96.5411 9.89097 137.582 3.4229 181.693 1.58789C156.549 6.31957 137.631 17.4382 124.191 34.1074C105.922 56.7673 97.917 89.5163 97.917 129.923C97.917 211.079 163.707 276.869 244.863 276.869C265.15 276.869 281.292 272.757 294.082 265.263C306.876 257.766 316.247 246.923 323.049 233.576C336.625 206.934 340 170.233 340 129.923Z" stroke="white" stroke-width="2"/>
</svg>
